<?xml version="1.0" encoding="utf-8"?>
<!-- Generator: Adobe Illustrator 24.0.3, SVG Export Plug-In . SVG Version: 6.00 Build 0)  -->
<svg version="1.1" id="Lager_1" xmlns="http://www.w3.org/2000/svg" xmlns:xlink="http://www.w3.org/1999/xlink" x="0px" y="0px"
	 viewBox="0 0 86 12" style="enable-background:new 0 0 86 12;" xml:space="preserve">
<style type="text/css">
	.st0{fill:#984B1E;}
	.st1{fill:#FFC1D6;}
	.st2{fill:#FF2A2A;}
	.st3{fill:#FF0000;}
	.st4{fill:#BF2024;}
	.st5{fill:#0180AD;}
	.st6{fill:#034C79;}
	.st7{fill:#E4D7CE;}
	.st8{fill:#A02C2C;}
	.st9{fill:#004F75;}
	.st10{fill:#FF7F2A;}
	.st11{fill:#E8D9CC;}
	.st12{fill:#FF5555;}
	.st13{fill:#0B4368;}
	.st14{fill:#742D08;fill-opacity:0.8722;}
	.st15{fill:#014F75;}
	.st16{fill:#E3E6D9;}
	.st17{fill:#AA0000;}
	.st18{fill:#1D1D1B;}
</style>
<g>
	<g transform="matrix(.84454 -.27267 .27267 .84454 578.16 746.34)">
		<g transform="matrix(.96735 .25345 -.25345 .96735 111.15 -51.792)">
			<path class="st0" d="M-695.2-790.2l-0.1,0.2l0,0.2l0,0.2l0,0.2l0,0l0,0.2l0,0.2l0.1,0.3l0.2,0.4l0.2,0.3l0.2,0.2l0.2,0.2l0.2,0.3
				l0.4,0.4l0.7,0.4l0.9,0.4l0.6,0.2l0.6,0.1l0.9,0l0.6,0l0.7-0.2l0.4-0.1l0.2-0.1l0.5-0.1l0.4-0.1l0.4-0.1l0.3-0.1l0.4-0.2l0.5-0.3
				l0.3-0.3l0.3-0.4l0.2-0.3l0.1-0.2l0.1-0.5l0.1-0.5l0.1-0.4l0.1-0.4l0-0.3l-0.1,0.4l-0.1,0.3l-0.4,0.4l-0.8,0.6l-0.8,0.3l-0.6,0.1
				l-0.8,0.2l-0.7,0l-0.9,0.1l-0.7,0l-0.5,0l-0.8-0.1l-0.4,0l-0.4-0.2l-0.4-0.2l-0.3-0.2l-0.2-0.2l-0.3-0.1l-0.3-0.1l-0.2-0.3
				l-0.3-0.1l-0.3-0.1l-0.2-0.2l-0.1-0.3L-695.2-790.2z"/>
			<path class="st1" d="M-695.2-790.1l0-0.4l0-0.4l0-0.2l0-0.2l0.1-0.2l0-0.2l0.1-0.2l0.4-0.5l0.2-0.2l0.2-0.2l0.1-0.1l0-0.1l0.1,0
				l0.1,0l0.3-0.2l0.4-0.1l0.5-0.2l0.1,0c0-0.1,0-0.1,0-0.1c0.1,0,0.1,0,0.2,0c0.1,0,0.2,0,0.3,0c0.1,0,0.2,0,0.3,0l0.4-0.1l0.5-0.2
				l0.3,0l0,0l0.2,0v0l0.3,0l0.6,0l0.2,0l0.1,0l0.2,0.1l0.2,0l0.5,0.1l0.4,0.1l0-0.2l0-0.1l0.1,0l0,0l0,0.2l0,0l0.2,0l0-0.1l0.3,0
				l0.6,0.1l0,0.2l0.8,0.5l0.3,0.2l0.1,0.2l0.3,0.3c0,0,0.5,0.7,0.4,0.7c-0.1,0,0.2,0.4,0.2,0.4l0,0.5l-0.1,0.2l-0.2,0.8l-1.2,0.9
				l-0.9,0.4l-0.6,0.1l-0.5,0.2l-0.8,0.1l-1,0.1l-1.1,0l-0.5,0l-0.6,0l-0.6-0.3l-0.7-0.5l-0.7-0.2l-0.2-0.3l-0.3-0.2l-0.3-0.2
				l-0.3-0.3L-695.2-790.1z"/>
			<path class="st2" d="M-691.6-793.6c0.2,0.1,0.4,0.2,0.5,0.2c0,0,0.1,0,0.1,0c0,0,0-0.1,0-0.1c-0.1-0.1-0.3-0.2-0.4-0.2
				c0,0-0.1,0-0.1,0C-691.5-793.8-691.5-793.8-691.6-793.6C-691.6-793.7-691.6-793.7-691.6-793.6L-691.6-793.6z"/>
			<path class="st3" d="M-690.9-793C-690.9-793.1-690.8-793.1-690.9-793l0.6-0.4l0.1,0l0,0l0,0l0,0l0,0l0,0l0,0l-0.3,0.2l-0.1,0
				l-0.1,0l-0.1,0l-0.1,0L-690.9-793L-690.9-793L-690.9-793L-690.9-793z"/>
			<path class="st4" d="M-690.7-793.5L-690.7-793.5L-690.7-793.5L-690.7-793.5l0-0.1l0,0l0.4,0l0,0l0,0l0,0l0,0l0,0l0,0l0,0.1l0,0
				l0,0l-0.5,0L-690.7-793.5L-690.7-793.5L-690.7-793.5L-690.7-793.5z"/>
			<path class="st5" d="M-691.3-793.2l-0.1,0.5l0,0l0,0l0,0l0.1,0l0.1,0l0,0l0,0l0,0l0-0.5l0,0l0,0l0,0L-691.3-793.2L-691.3-793.2
				L-691.3-793.2z"/>
			<path class="st6" d="M-692.5-793.6L-692.5-793.6L-692.5-793.6L-692.5-793.6L-692.5-793.6l0.1,0c0,0,0.1,0,0.1,0c0,0,0.1,0,0.1,0
				c0,0,0.2,0,0.2,0l0.1,0l0.1,0l0,0l0,0l0,0l0,0l0,0l0,0l-0.1,0l-0.2,0l-0.2,0l-0.1,0l-0.1,0L-692.5-793.6L-692.5-793.6
				L-692.5-793.6L-692.5-793.6z"/>
			<path class="st7" d="M-692.1-793.1L-692.1-793.1L-692.1-793.1l0.1,0.1l0.1,0.1l0.1,0.2l0,0.1l0,0l0,0l-0.1,0l0,0l0,0l-0.1-0.1
				l-0.1-0.1l-0.1-0.1l0-0.1l0-0.1L-692.1-793.1L-692.1-793.1L-692.1-793.1z"/>
			<path class="st8" d="M-694.1-792.9L-694.1-792.9l0-0.1l0,0l0.1,0l0.1,0c0.1,0,0.2-0.1,0.3,0l0.1,0l0,0l0,0c0,0,0,0,0,0.1
				c0,0,0,0.1,0,0.1l0,0c0,0-0.1,0-0.2,0c-0.1,0-0.1,0-0.2,0l-0.1,0L-694.1-792.9L-694.1-792.9z"/>
			<path class="st9" d="M-693.8-790.9l0.5-0.1c0.1,0,0.1,0,0.1,0.1l0,0c0,0.1,0,0.1-0.1,0.1l-0.5,0.1c-0.1,0-0.1,0-0.1-0.1l0,0
				C-693.9-790.8-693.8-790.9-693.8-790.9z"/>
			<path class="st10" d="M-694.7-791.1l0.5-0.1c0.1,0,0.1,0,0.1,0.1l0,0c0,0.1,0,0.1-0.1,0.1l-0.5,0.1c-0.1,0-0.1,0-0.1-0.1l0,0
				C-694.8-791-694.7-791.1-694.7-791.1z"/>
			<path class="st11" d="M-694.1-790.8L-694.1-790.8c0.1,0,0.1,0.1,0.1,0.1l-0.1,0.6c0,0.1-0.1,0.1-0.1,0.1l0,0
				c-0.1,0-0.1-0.1-0.1-0.1l0.1-0.6C-694.3-790.8-694.2-790.8-694.1-790.8z"/>
			<path class="st12" d="M-693.3-789.8l0.6-0.1c0.1,0,0.1,0,0.1,0.1l0,0c0,0.1,0,0.1-0.1,0.1l-0.6,0.1c-0.1,0-0.1,0-0.1-0.1l0,0
				C-693.4-789.7-693.4-789.8-693.3-789.8z"/>
			<path class="st10" d="M-692.4-789.6L-692.4-789.6c0.1,0,0.2,0,0.2,0.1l0.1,0.6c0,0.1,0,0.1-0.1,0.1l0,0c-0.1,0-0.1,0-0.1-0.1
				l-0.1-0.6C-692.5-789.6-692.5-789.6-692.4-789.6z"/>
			<path class="st13" d="M-691.5-789.6l0.7-0.2c0.1,0,0.1,0,0.2,0.1l0,0c0,0.1,0,0.1-0.1,0.2l-0.7,0.2c-0.1,0-0.1,0-0.2-0.1l0,0
				C-691.6-789.5-691.6-789.6-691.5-789.6z"/>
			<path class="st13" d="M-689.9-792.8L-689.9-792.8c0,0,0.1,0,0.1,0l0.6,0.6c0,0,0,0.1,0,0.1l0,0c0,0-0.1,0-0.1,0l-0.6-0.6
				C-689.9-792.7-689.9-792.8-689.9-792.8z"/>
			<path class="st5" d="M-689.8-793.7l0.2,0.5l0,0l0,0l0,0l0.1,0l0,0l0,0l0,0l0,0l-0.2-0.5l0,0l-0.1,0l0,0L-689.8-793.7
				L-689.8-793.7L-689.8-793.7z"/>
			<path class="st4" d="M-688-792.3L-688-792.3L-688-792.3L-688-792.3l0-0.1l0,0l0.6-0.3l0.1,0l0.1,0l0.1,0l0,0l0,0l0,0l0,0.1l0,0
				l-0.1,0l-0.7,0.3l-0.1,0L-688-792.3L-688-792.3L-688-792.3z"/>
			<path class="st7" d="M-687.7-794L-687.7-794c0.1,0,0.1,0,0.1,0.1l0,0.4c0,0.1,0,0.1-0.1,0.1l-0.1,0c-0.1,0-0.1,0-0.1-0.1
				L-687.7-794C-687.8-794-687.7-794-687.7-794z"/>
			<path class="st2" d="M-686.4-793.5L-686.4-793.5c0,0.1-0.1,0.1-0.2,0.1l-0.6-0.1c-0.1,0-0.1-0.1-0.1-0.1l0,0
				c0-0.1,0.1-0.1,0.2-0.1l0.6,0.1C-686.5-793.6-686.4-793.6-686.4-793.5z"/>
			<path class="st14" d="M-691.8-791.2l0.4,0.4l0.3,0.2l0.3,0.1l0.5,0.1l0.5,0l0.4-0.1l0-0.1l0.1-0.1l0.1,0.1l0.1,0.1l0.4,0l0.1-0.1
				l0.2-0.2l0.1-0.1l0.1-0.1l0-0.1l-0.1,0l-0.5-0.5l-0.2-0.1l-0.2,0l-0.3-0.1l-0.3-0.1l-0.2,0l-0.2,0.1l-0.3,0.1l-0.3,0l-0.1,0
				l-0.2,0.1l-0.1,0.1l-0.1,0.1l-0.1,0.2L-691.8-791.2z"/>
			<path class="st7" d="M-688.2-790.3l0.7,0.3c0.1,0,0.1,0.1,0.1,0.1l0,0c0,0.1-0.1,0.1-0.1,0.1l-0.7-0.3c-0.1,0-0.1-0.1-0.1-0.1
				l0,0C-688.3-790.3-688.3-790.4-688.2-790.3z"/>
			<path class="st2" d="M-689.3-789.2l-0.4,0.6c0,0.1-0.1,0.1-0.2,0l0,0c0,0-0.1-0.1,0-0.2l0.4-0.6c0-0.1,0.1-0.1,0.2,0l0,0
				C-689.3-789.3-689.2-789.3-689.3-789.2z"/>
			<path class="st13" d="M-687.6-789.3l0.6,0.5c0,0,0.1,0.1,0,0.2l0,0c0,0-0.1,0.1-0.2,0l-0.6-0.5c0,0-0.1-0.1,0-0.2l0,0
				C-687.7-789.3-687.6-789.3-687.6-789.3z"/>
			<path class="st15" d="M-685.1-791.3L-685.1-791.3c0.1,0,0.2,0,0.2,0.1l0.1,0.6c0,0.1,0,0.1-0.1,0.1l0,0c-0.1,0-0.1,0-0.1-0.1
				l-0.1-0.6C-685.2-791.2-685.1-791.3-685.1-791.3z"/>
			<path class="st10" d="M-687.1-792.4L-687.1-792.4c0.1,0,0.2,0,0.2,0.1l0.1,0.6c0,0.1,0,0.1-0.1,0.1l0,0c-0.1,0-0.1,0-0.1-0.1
				l-0.1-0.6C-687.2-792.3-687.1-792.4-687.1-792.4z"/>
			<path class="st10" d="M-686-790.5L-686-790.5c0.1,0.1,0.1,0.1,0.1,0.2l-0.3,0.5c0,0.1-0.1,0.1-0.2,0l0,0c-0.1,0-0.1-0.1,0-0.2
				l0.3-0.5C-686.1-790.5-686-790.5-686-790.5z"/>
			<path class="st15" d="M-693-792l0.5,0.2c0.1,0,0.1,0.1,0.1,0.1l0,0c0,0.1-0.1,0.1-0.1,0.1l-0.5-0.2c-0.1,0-0.1-0.1-0.1-0.1l0,0
				C-693.1-792-693.1-792-693-792z"/>
			<path class="st7" d="M-694.1-792.1l0,0.6c0,0.1,0,0.1-0.1,0.1l0,0c-0.1,0-0.1,0-0.1-0.1l0-0.6c0-0.1,0-0.1,0.1-0.1l0,0
				C-694.2-792.2-694.1-792.2-694.1-792.1z"/>
			<path class="st7" d="M-685.2-792.2l0,0.6c0,0.1,0,0.1-0.1,0.1l0,0c-0.1,0-0.1,0-0.1-0.1l0-0.6c0-0.1,0-0.1,0.1-0.1l0,0
				C-685.2-792.3-685.2-792.3-685.2-792.2z"/>
			<path class="st7" d="M-688-792.7l0,0.6c0,0.1,0,0.1-0.1,0.1l0,0c-0.1,0-0.1,0-0.1-0.1l0-0.6c0-0.1,0-0.1,0.1-0.1h0
				C-688.1-792.8-688-792.7-688-792.7z"/>
			<path class="st7" d="M-688.5-793.2l-0.6,0.1c-0.1,0-0.1,0-0.1-0.1l0,0c0-0.1,0-0.1,0.1-0.1l0.6-0.1c0.1,0,0.1,0,0.1,0.1l0,0
				C-688.4-793.2-688.4-793.2-688.5-793.2z"/>
			<path class="st16" d="M-685.4-790.1L-685.4-790.1c0.1,0,0.2,0,0.2,0.1l0.1,0.6c0,0.1,0,0.1-0.1,0.1l0,0c-0.1,0-0.1,0-0.1-0.1
				l-0.1-0.6C-685.5-790-685.5-790.1-685.4-790.1z"/>
			<path class="st2" d="M-685.4-790.8L-685.4-790.8c-0.1,0.1-0.1,0.1-0.2,0l-0.4-0.4c0,0,0-0.1,0-0.2l0,0c0,0,0.1,0,0.2,0l0.4,0.4
				C-685.3-790.9-685.3-790.8-685.4-790.8z"/>
			<path class="st16" d="M-686.7-790.6L-686.7-790.6c-0.1,0.1-0.1,0.1-0.2,0l-0.4-0.4c0,0,0-0.1,0-0.2l0,0c0,0,0.1,0,0.2,0l0.4,0.4
				C-686.6-790.7-686.6-790.6-686.7-790.6z"/>
			<path class="st7" d="M-688.2-788.8l-0.6,0.4c-0.1,0-0.1,0-0.2,0l0,0c0-0.1,0-0.1,0-0.2l0.6-0.4c0.1,0,0.1,0,0.2,0l0,0
				C-688.2-788.9-688.2-788.8-688.2-788.8z"/>
			<path class="st7" d="M-691-788.5l-0.6,0.4c-0.1,0-0.1,0-0.2,0l0,0c0-0.1,0-0.1,0-0.2l0.6-0.4c0.1,0,0.1,0,0.2,0l0,0
				C-691-788.6-691-788.5-691-788.5z"/>
			<path class="st2" d="M-691.7-790.5l-0.6,0.4c-0.1,0-0.1,0-0.2,0l0,0c0-0.1,0-0.1,0-0.2l0.6-0.4c0.1,0,0.1,0,0.2,0l0,0
				C-691.7-790.7-691.7-790.6-691.7-790.5z"/>
			<path class="st17" d="M-687.3-793l-0.6-0.4c-0.1,0-0.1-0.1,0-0.2l0,0c0-0.1,0.1-0.1,0.2,0l0.6,0.4c0.1,0,0.1,0.1,0,0.2l0,0
				C-687.2-793-687.2-793-687.3-793z"/>
			<path class="st11" d="M-689.4-788.7L-689.4-788.7c0.1,0,0.1,0.1,0.1,0.1l-0.1,0.6c0,0.1-0.1,0.1-0.1,0.1l0,0
				c-0.1,0-0.1-0.1-0.1-0.1l0.1-0.6C-689.5-788.6-689.4-788.7-689.4-788.7z"/>
			<path class="st7" d="M-689.8-789.9l-0.6,0.4c-0.1,0-0.1,0-0.2,0l0,0c0-0.1,0-0.1,0-0.2l0.6-0.4c0.1,0,0.1,0,0.2,0l0,0
				C-689.7-790-689.7-789.9-689.8-789.9z"/>
			<path class="st9" d="M-685.8-792.5l-0.6,0.4c-0.1,0-0.1,0-0.2,0l0,0c0-0.1,0-0.1,0-0.2l0.6-0.4c0.1,0,0.1,0,0.2,0l0,0
				C-685.7-792.6-685.7-792.6-685.8-792.5z"/>
			<path class="st7" d="M-690-792.3l-0.6,0.4c-0.1,0-0.1,0-0.2,0l0,0c0-0.1,0-0.1,0-0.2l0.6-0.4c0.1,0,0.1,0,0.2,0l0,0
				C-690-792.4-690-792.3-690-792.3z"/>
		</g>
	</g>
</g>
<g>
	<path class="st18" d="M14.8,9.4c-0.1,0-0.1-0.2-0.2-0.4c0-0.2,0-0.8,0-1.7c0-0.3,0-0.7,0-1.4s0-1.3,0-1.8s0-0.8,0-0.9V2.6h-1
		c-0.5,0-0.8,0-0.9,0c0.1,0.1,0,0.1-0.1,0c-0.1-0.1-0.2-0.3-0.2-0.5s0.1-0.3,0.2-0.5l0.2-0.2h2.3c1.3,0,2.1,0,2.3,0.1
		c0.2,0.1,0.4,0.2,0.4,0.5c0,0.2-0.1,0.4-0.2,0.5c-0.2,0.1-0.5,0.2-0.9,0.2h-0.6V3l-0.2,4.1c0,1-0.1,1.6-0.1,1.9
		c0,0.3-0.1,0.4-0.2,0.5c0,0.1-0.2,0.2-0.3,0.1C15.1,9.6,14.9,9.6,14.8,9.4z"/>
	<path class="st18" d="M18.3,10.8c-0.1-0.1-0.2-0.2-0.2-0.3s0-0.5,0-1.1c0-0.8,0.1-1.4,0.1-1.8c0-0.2,0-0.4,0-0.5s0-0.1-0.1-0.1
		s-0.2-0.1-0.3-0.2c-0.1-0.1-0.1-0.3-0.1-0.5c0-0.2,0.1-0.4,0.3-0.5l0.3-0.2V4c0-1,0-1.5,0.1-1.7c0.1-0.2,0.2-0.4,0.5-0.4
		c0.3,0,0.5,0.1,0.5,0.3c0.1,0.3,0.2,0.9,0.2,1.9v1.7h0.5c0.4,0,0.7-0.1,1.1-0.1h0.5V4.3c0-0.4,0-0.6,0-0.8s0-0.3,0-0.5
		c0-0.1,0.1-0.2,0.1-0.3c0.1,0,0.1-0.1,0.2-0.1s0.2,0,0.3,0c0.2,0,0.4,0,0.4,0.1c0.1,0.2,0.1,1,0.2,2.5c0,0.2,0,0.6,0,1.2
		c0,1.6,0,2.6,0,3c0,0.4-0.1,0.6-0.1,0.7c-0.1,0.1-0.3,0.2-0.4,0.2c-0.2,0-0.3-0.1-0.4-0.2c-0.1-0.1-0.2-0.2-0.2-0.4s0-0.6-0.1-1.2
		V7.1h-0.6c-0.4,0-0.8,0-1.1,0.1l-0.4-0.1l-0.1,0.7c0,0.5-0.1,1.1-0.1,1.8c0,0.5,0,0.8-0.1,0.9c0,0.1-0.1,0.2-0.2,0.3
		c-0.1,0.1-0.3,0.1-0.4,0.1C18.6,11,18.4,10.9,18.3,10.8z"/>
	<path class="st18" d="M24,9.9c-0.1-0.1-0.2-0.3-0.3-0.6c0-0.3,0-0.7,0-1.4c0-0.8,0.1-1.3,0-1.6c0-0.3,0-0.4,0.1-0.5
		s0.1-0.3,0.1-0.7c0-0.4-0.1-0.8-0.1-1.3c0-0.1,0-0.3,0-0.3c0-0.1,0.1-0.2,0.2-0.3c0.1,0,0.2-0.1,0.4-0.1c0.1,0,0.3,0,0.5-0.1
		c0.2-0.1,0.4-0.1,0.7,0c0.3,0.1,0.5,0.1,0.9,0.1c0.3,0,0.5,0,0.7,0.1c0.2,0.1,0.2,0.3,0.2,0.5c0,0.3-0.1,0.5-0.2,0.5
		c-0.1,0.1-0.5,0.1-1.1,0.1s-0.9,0-0.9,0.1v0.1c0,0.1,0,0.4,0,0.6v0.4l0.9-0.1c0.4,0,0.7,0,0.8,0s0.2,0.1,0.3,0.2
		c0.2,0.2,0.3,0.5,0.1,0.7c-0.1,0.2-0.4,0.4-0.8,0.4c-0.9,0-1.4,0.1-1.4,0.3c0,0.1-0.1,0.4-0.1,0.9l-0.1,0.8l0.4-0.1
		c0.6-0.1,1-0.1,1.2-0.1c0.2,0,0.3,0.1,0.3,0.2C27,9,26.9,9.3,26.7,9.5c-0.1,0.1-0.6,0.3-1.3,0.4C24.7,10,24.1,10,24,9.9z"/>
	<path class="st18" d="M31.7,9.4c-0.1-0.1-0.2-0.3-0.2-0.5s0-0.3,0.2-0.4c0.1-0.1,0.3-0.2,0.5-0.3c0.1-0.1,0.2-0.1,0.3-0.2
		c0-0.1,0.1-0.2,0.1-0.4c0-0.4,0-0.6-0.1-0.9c-0.1-0.2-0.2-0.4-0.4-0.6c-0.3-0.2-0.5-0.4-0.6-0.6s-0.2-0.5-0.2-1s0-0.9,0.1-1.1
		c0.1-0.3,0.3-0.5,0.6-0.8c0.5-0.4,0.9-0.5,1.2-0.2c0.2,0.2,0.2,0.4,0.1,0.6c-0.1,0.2-0.3,0.4-0.6,0.7c-0.1,0.2-0.2,0.4-0.2,0.8
		c0,0.2,0,0.4,0,0.4c0.1,0.1,0.1,0.2,0.2,0.2c0.2,0.1,0.4,0.3,0.5,0.5c0.2,0.2,0.4,0.4,0.4,0.5c0.2,0.5,0.3,0.9,0.3,1.2
		c0,0.3,0,0.6,0,0.7c0,0.2-0.1,0.3-0.1,0.4c0,0.1-0.1,0.2-0.2,0.3c-0.1,0.2-0.4,0.3-0.7,0.6c-0.3,0.3-0.6,0.3-0.8,0.3
		C31.9,9.6,31.8,9.6,31.7,9.4z"/>
	<path class="st18" d="M38,10c-0.2-0.1-0.4-0.4-0.6-0.8l-0.3-0.6l-0.3,0.3c-0.3,0.4-0.5,0.6-0.7,0.7s-0.2,0.2-0.4,0.2
		s-0.3,0-0.5-0.1c-0.1-0.1-0.3-0.2-0.3-0.4c-0.1-0.2-0.2-0.7-0.3-1.6c0-0.7,0-1.5,0-2.3c0-0.6,0-1,0-1.2s0.1-0.3,0.2-0.4
		c0.1-0.1,0.3-0.2,0.5-0.2s0.3,0.1,0.4,0.2c0.1,0.1,0.1,0.2,0.2,0.4c0,0.2,0.1,0.6,0.1,1.2c0,0.9,0.1,1.6,0.1,1.9l0.1,0.6l0.3-0.3
		C36.8,7.2,37.1,7,37.3,7s0.5,0.1,0.7,0.4s0.4,0.5,0.5,0.7l0.2,0.4l-0.1-0.3c0.1-0.2,0.2-0.6,0.3-1.3c0.1-1.3,0.2-2.1,0.3-2.5
		s0.1-0.6,0.2-0.6c0.1-0.1,0.3-0.2,0.4-0.2c0.2,0,0.3,0.1,0.4,0.2c0.1,0.1,0.1,0.2,0.2,0.3c0.1,0.1,0,0.2,0,0.4c0,0.3-0.1,1-0.2,2
		C40.1,7.4,40,8,40,8.3c-0.1,0.3-0.2,0.5-0.4,0.8c-0.2,0.2-0.3,0.4-0.3,0.6c-0.1,0.3-0.2,0.4-0.5,0.5C38.5,10.2,38.2,10.2,38,10z"/>
	<path class="st18" d="M41.4,9.9c-0.1-0.1-0.2-0.3-0.3-0.6c0-0.3,0-0.7,0-1.4c0-0.8,0.1-1.3,0-1.6c0-0.3,0-0.4,0.1-0.5
		c0.1-0.1,0.1-0.3,0.1-0.7c0-0.4-0.1-0.8-0.1-1.3c0-0.1,0-0.3,0-0.3c0-0.1,0.1-0.2,0.2-0.3c0.1,0,0.3-0.1,0.4-0.1
		c0.1,0,0.3,0,0.5-0.1s0.4-0.1,0.7,0c0.3,0.1,0.5,0.1,0.9,0.1c0.3,0,0.5,0,0.7,0.1s0.2,0.3,0.2,0.5c0,0.3-0.1,0.5-0.2,0.5
		c-0.1,0.1-0.5,0.1-1.1,0.1c-0.6,0-0.9,0-0.9,0.1v0.1c0,0.1,0,0.4,0,0.6v0.4l0.9-0.1c0.4,0,0.7,0,0.8,0c0.1,0,0.2,0.1,0.3,0.2
		c0.2,0.2,0.3,0.5,0.1,0.7c-0.1,0.2-0.4,0.4-0.8,0.4c-0.9,0-1.4,0.1-1.4,0.3c0,0.1-0.1,0.4-0.1,0.9l-0.1,0.8l0.4-0.1
		c0.6-0.1,1-0.1,1.2-0.1s0.3,0.1,0.3,0.2c0.2,0.3,0.1,0.6-0.1,0.8c-0.1,0.1-0.6,0.3-1.3,0.4C42.1,10,41.6,10,41.4,9.9z"/>
	<path class="st18" d="M46.1,9.5c-0.1,0-0.2-0.1-0.4-0.2c0-0.1-0.1-0.2-0.1-0.4s0-0.6,0-1.2c0-1,0-1.9-0.1-2.9c0-0.8,0-1.3,0-1.5
		s0.1-0.4,0.4-0.4c0.1-0.1,0.3-0.1,0.6-0.1s0.6,0,0.9,0.1c0.4,0,0.7,0.3,1.1,0.7c0.4,0.4,0.6,0.9,0.8,1.5s0.2,1.2,0.1,2
		c-0.1,0.8-0.4,1.3-0.8,1.8c-0.3,0.3-0.7,0.6-1.1,0.7S46.5,9.6,46.1,9.5z M47.3,8.1C47.6,8,47.8,7.7,48,7.3s0.2-0.8,0.2-1.3
		c0-0.3-0.1-0.7-0.3-1.1s-0.3-0.6-0.6-0.7C47,4,46.8,4,46.7,4.1v0.1c0,0.1,0.1,0.8,0.1,2.1s0.1,2,0.1,2C47,8.2,47.1,8.2,47.3,8.1z"
		/>
	<path class="st18" d="M50.2,2.6C50.1,2.5,50,2.4,50,2.2s0-0.3,0.1-0.4s0.3-0.2,0.7-0.2c0.4-0.1,0.7-0.1,1-0.2
		c0.2,0,0.3,0.1,0.4,0.2s0.2,0.3,0.2,0.5c0,0.2-0.1,0.3-0.2,0.4c-0.1,0.1-0.3,0.1-0.7,0.2c-0.3,0.1-0.6,0.1-0.8,0.1
		C50.5,2.8,50.3,2.8,50.2,2.6z M50.6,9.4c-0.3-0.2-0.4-1-0.4-2.2c0.1-1.5,0.1-2.4,0.2-2.7c0-0.3,0.1-0.5,0.2-0.6
		c0.1-0.1,0.3-0.2,0.4-0.2c0.2,0,0.3,0.1,0.5,0.2l0,0c0,0.2,0.1,0.4,0.1,0.6s0,1-0.1,2.3c0,0.2,0,0.4,0,0.5c0,0.6,0,1.1,0.1,1.2
		c0.2,0.4,0.2,0.7,0,0.9c-0.1,0.1-0.3,0.2-0.4,0.2C50.9,9.6,50.7,9.6,50.6,9.4z"/>
	<path class="st18" d="M52.9,9.4c-0.1-0.1-0.2-0.3-0.2-0.5s0-0.3,0.2-0.4c0.1-0.1,0.3-0.2,0.5-0.3s0.3-0.1,0.3-0.2
		c0-0.1,0.1-0.2,0.1-0.4c0-0.4,0-0.6-0.1-0.9c-0.1-0.2-0.2-0.4-0.4-0.6c-0.3-0.2-0.5-0.4-0.6-0.6s-0.2-0.5-0.2-1s0-0.9,0.1-1.1
		c0.1-0.3,0.3-0.5,0.6-0.8c0.5-0.4,0.9-0.5,1.2-0.2c0.2,0.4,0.2,0.6,0.2,0.8c-0.1,0.2-0.3,0.4-0.6,0.7c-0.1,0.1-0.2,0.3-0.2,0.6
		c0,0.2,0,0.4,0,0.4c0,0.1,0.1,0.2,0.2,0.2c0.2,0.1,0.4,0.3,0.5,0.5c0.2,0.2,0.3,0.4,0.4,0.5c0.2,0.5,0.3,0.9,0.3,1.2
		c0,0.3,0,0.6,0,0.7c0,0.2-0.1,0.3-0.1,0.4c0,0.1-0.1,0.2-0.2,0.3c-0.1,0.2-0.4,0.3-0.7,0.6c-0.4,0.2-0.6,0.3-0.8,0.3
		C53.2,9.6,53,9.6,52.9,9.4z"/>
	<path class="st18" d="M55.9,10.8c-0.1-0.1-0.2-0.2-0.2-0.3s0-0.5,0-1.1c0-0.8,0.1-1.4,0.1-1.8c0-0.2,0-0.4,0-0.5s0-0.1-0.1-0.1
		s-0.2-0.1-0.3-0.2c-0.1-0.2-0.2-0.3-0.2-0.5s0.1-0.4,0.3-0.5l0.3-0.2V4c0-1,0-1.5,0.1-1.7S56.1,2,56.4,2s0.5,0.1,0.5,0.3
		c0.2,0.2,0.2,0.8,0.2,1.8v1.7h0.5c0.4,0,0.7-0.1,1.1-0.1h0.5V4.3c0-0.4,0-0.6,0-0.8s0-0.3,0-0.5c0-0.1,0.1-0.2,0.1-0.3
		c0.1,0,0.1-0.1,0.2-0.1s0.2,0,0.3,0c0.2,0,0.4,0,0.4,0.1c0.1,0.2,0.1,1,0.2,2.5c0,0.2,0,0.6,0,1.2c0,1.6,0,2.6,0,3
		c0,0.4-0.1,0.6-0.1,0.7c-0.1,0.1-0.3,0.2-0.4,0.2s-0.3-0.1-0.4-0.2c-0.1-0.1-0.2-0.2-0.2-0.4s0-0.6-0.1-1.2V7.1h-0.6
		c-0.4,0-0.8,0-1.1,0.1H57l-0.1,0.7c0,0.5-0.1,1.1-0.1,1.8c0,0.5,0,0.8-0.1,0.9c0,0.1-0.1,0.2-0.2,0.3C56.4,11,56.2,11,56.1,11
		C56.1,11,56,10.9,55.9,10.8z"/>
	<path class="st18" d="M64.6,9.5c-0.1-0.1-0.1-0.2-0.1-0.3s0-0.4,0.1-0.8c0-0.7,0-1.3,0-1.7s0-0.8,0.1-1s0.2-0.7,0.2-1.4
		c0-0.8,0.1-1.2,0.2-1.3s0.2-0.1,0.5-0.2c0.2,0,0.8-0.1,1.7-0.1c1.2,0,1.9,0,2.1,0s0.3,0.2,0.3,0.5s-0.1,0.5-0.3,0.5
		c-0.2,0.1-0.7,0.1-1.6,0.1c-1.1,0-1.6,0.1-1.6,0.1s-0.1,0.3-0.1,0.7L66,5.3h0.7c0.3,0,0.5,0,0.6,0s0.2,0.1,0.3,0.2s0.2,0.3,0.2,0.5
		s-0.1,0.3-0.2,0.4c-0.1,0.1-0.4,0.2-0.8,0.2c-0.4,0-0.7,0-0.8,0.1S65.9,7,65.9,7.3c0,0.5,0,0.9-0.1,1.4c-0.1,0.5-0.2,0.8-0.2,0.9
		c-0.1,0.1-0.3,0.2-0.5,0.2C64.8,9.7,64.7,9.6,64.6,9.5z"/>
	<path class="st18" d="M70.4,2.6c-0.1-0.1-0.2-0.2-0.2-0.4s0-0.3,0.1-0.4s0.3-0.2,0.7-0.2c0.4-0.1,0.7-0.1,1-0.2
		c0.2,0,0.3,0.1,0.4,0.2c0.1,0.1,0.2,0.3,0.1,0.5c0,0.2-0.1,0.3-0.2,0.4c-0.1,0.1-0.3,0.1-0.7,0.2c-0.3,0.1-0.6,0.1-0.8,0.1
		C70.7,2.8,70.5,2.8,70.4,2.6z M70.8,9.4c-0.3-0.2-0.4-1-0.4-2.2c0.1-1.5,0.2-2.4,0.2-2.6c0-0.3,0.1-0.5,0.2-0.6
		c0.1-0.1,0.3-0.2,0.4-0.2c0.2,0,0.3,0.1,0.5,0.2l0,0c0.1,0.1,0.1,0.2,0.1,0.5s0,1-0.1,2.3c0,0.2,0,0.4,0,0.5c0,0.6,0,1.1,0.1,1.2
		c0.2,0.4,0.2,0.7,0,0.9c-0.1,0.1-0.3,0.2-0.4,0.2C71.1,9.6,71,9.6,70.8,9.4z"/>
	<path class="st18" d="M73.1,9.7l-0.2-0.2l-0.1-2.7c0-1.4,0-2.3,0-2.7s0.1-0.7,0.2-0.8c0.2-0.1,0.4-0.2,0.5-0.2
		c0.2,0,0.3,0.1,0.4,0.2C74,3.4,74,3.5,74,3.6s0,0.4,0,0.9c0,0.7,0,1.1,0,1.1s0.3-0.2,0.6-0.6c0.3-0.4,0.8-0.8,1.2-1.3
		c0.5-0.5,0.8-0.6,1.1-0.3C77.1,3.6,77.1,3.8,77,4c-0.1,0.2-0.4,0.6-0.9,1.1c-0.6,0.7-1,1-1,1.1C75,6.2,75,6.3,75,6.3
		s0.2,0.3,0.7,0.6c1.4,1.2,2.1,1.8,2.1,2.1c0,0.1-0.1,0.3-0.2,0.4c-0.2,0.1-0.3,0.2-0.4,0.2c-0.3,0-0.8-0.4-1.7-1.2
		c-0.5-0.4-0.9-0.8-1.1-1L74,7.1v1.1c0,0.5,0,0.9,0,1s-0.1,0.2-0.2,0.3c-0.1,0.1-0.3,0.2-0.4,0.2C73.3,9.7,73.3,9.9,73.1,9.7z"/>
	<path class="st18" d="M82.1,9.6c-0.2-0.1-0.3-0.4-0.3-0.8c-0.1-0.4-0.2-0.7-0.3-0.8c-0.1-0.1-0.2-0.1-0.5-0.1h-0.4l-0.2,0.6
		c-0.2,0.5-0.4,0.8-0.6,1c-0.2,0.1-0.5,0.1-0.7-0.1c-0.1-0.1-0.2-0.2-0.2-0.3s0-0.3,0.2-0.5c0.1-0.2,0.1-0.3,0.2-0.4S79.4,8,79.4,8
		c0-0.1,0-0.1,0-0.1h-0.1c-0.2,0-0.4,0-0.7-0.1c-0.3-0.1-0.5-0.2-0.5-0.2c-0.1-0.1-0.2-0.3-0.2-0.4c0-0.2,0.1-0.3,0.2-0.4
		s0.2-0.2,0.3-0.2c0.1,0,0.4,0,1,0.1c0.2,0,0.3,0.1,0.4,0c0.1,0,0.1-0.1,0.1-0.2c0-0.4,0.1-0.8,0.2-1.4s0.2-1,0.2-1.4
		s0.1-0.7,0.2-0.9c0.1-0.1,0.3-0.2,0.6-0.3c0.3,0,0.5,0,0.6,0.1s0.2,0.4,0.2,0.9s0.1,1,0.2,1.5s0.2,1,0.3,1.5c0.1,0.5,0.2,1,0.3,1.5
		c0.1,0.5,0.2,0.8,0.2,1s-0.1,0.3-0.2,0.4c-0.1,0.1-0.3,0.2-0.4,0.2S82.2,9.7,82.1,9.6z M81.3,6.6c0-0.1,0-0.2-0.1-0.3l0,0
		c0,0.1,0,0.2-0.1,0.3C81.1,6.7,81.1,6.7,81.3,6.6L81.3,6.6z"/>
</g>
</svg>
