<?xml version="1.0" encoding="utf-8"?>
<!-- Generator: Adobe Illustrator 24.0.1, SVG Export Plug-In . SVG Version: 6.00 Build 0)  -->
<svg version="1.1" id="Lager_1" xmlns="http://www.w3.org/2000/svg" xmlns:xlink="http://www.w3.org/1999/xlink" x="0px" y="0px"
	 viewBox="0 0 73.1 12" style="enable-background:new 0 0 73.1 12;" xml:space="preserve">
<style type="text/css">
	.st0{fill:#FFFFFF;}
</style>
<g>
	<path class="st0" d="M3.2,9.3C3.1,9.3,3.1,9.1,3,8.9c0-0.2,0-0.8,0-1.7c0-0.3,0-0.7,0-1.4s0-1.3,0-1.8s0-0.8,0-0.9l0-0.6l-1,0
		c-0.5,0-0.8,0-0.9,0C1.2,2.6,1.1,2.6,1,2.5C0.9,2.4,0.8,2.2,0.8,2c0-0.2,0.1-0.3,0.2-0.5l0.2-0.2h2.3c1.3,0,2.1,0,2.3,0.1
		C6,1.5,6.2,1.6,6.2,1.9c0,0.2-0.1,0.4-0.2,0.5C5.8,2.5,5.5,2.6,5.1,2.6H4.5l0,0.3L4.3,7c0,1-0.1,1.6-0.1,1.9c0,0.3-0.1,0.4-0.2,0.5
		C4,9.5,3.8,9.6,3.7,9.5C3.5,9.5,3.3,9.5,3.2,9.3z"/>
	<path class="st0" d="M6.7,10.7c-0.1-0.1-0.2-0.2-0.2-0.3c0-0.1,0-0.5,0-1.1c0-0.8,0.1-1.4,0.1-1.8c0-0.2,0-0.4,0-0.5
		c0-0.1,0-0.1-0.1-0.1c-0.1,0-0.2-0.1-0.3-0.2C6.1,6.6,6.1,6.4,6.1,6.2c0-0.2,0.1-0.4,0.3-0.5l0.3-0.2V3.9c0-1,0-1.5,0.1-1.7
		S7,1.8,7.3,1.8c0.3,0,0.5,0.1,0.5,0.3C7.9,2.4,8,3,8,4v1.7l0.5,0c0.4,0,0.7-0.1,1.1-0.1h0.5V4.2c0-0.4,0-0.6,0-0.8
		c0-0.2,0-0.3,0-0.5c0-0.1,0.1-0.2,0.1-0.3c0.1,0,0.1-0.1,0.2-0.1c0.1,0,0.2,0,0.3,0c0.2,0,0.4,0,0.4,0.1c0.1,0.2,0.1,1,0.2,2.5
		c0,0.2,0,0.6,0,1.2c0,1.6,0,2.6,0,3c0,0.4-0.1,0.6-0.1,0.7c-0.1,0.1-0.3,0.2-0.4,0.2c-0.2,0-0.3-0.1-0.4-0.2
		c-0.1-0.1-0.2-0.2-0.2-0.4c0-0.2,0-0.6-0.1-1.2l0-1.4H9.5c-0.4,0-0.8,0-1.1,0.1L8,7L7.9,7.7c0,0.5-0.1,1.1-0.1,1.8
		c0,0.5,0,0.8-0.1,0.9c0,0.1-0.1,0.2-0.2,0.3c-0.1,0.1-0.3,0.1-0.4,0.1C7,10.9,6.8,10.8,6.7,10.7z"/>
	<path class="st0" d="M12.4,9.8c-0.1-0.1-0.2-0.3-0.3-0.6c0-0.3,0-0.7,0-1.4c0-0.8,0.1-1.3,0-1.6c0-0.3,0-0.4,0.1-0.5
		c0.1-0.1,0.1-0.3,0.1-0.7c0-0.4-0.1-0.8-0.1-1.3c0-0.1,0-0.3,0-0.3c0-0.1,0.1-0.2,0.2-0.3C12.5,3.1,12.6,3,12.8,3
		c0.1,0,0.3,0,0.5-0.1c0.2-0.1,0.4-0.1,0.7,0c0.3,0.1,0.5,0.1,0.9,0.1c0.3,0,0.5,0,0.7,0.1s0.2,0.3,0.2,0.5c0,0.3-0.1,0.5-0.2,0.5
		c-0.1,0.1-0.5,0.1-1.1,0.1c-0.6,0-0.9,0-0.9,0.1c0,0,0,0.1,0,0.1c0,0.1,0,0.4,0,0.6v0.4l0.9-0.1c0.4,0,0.7,0,0.8,0
		c0.1,0,0.2,0.1,0.3,0.2c0.2,0.2,0.3,0.5,0.1,0.7c-0.1,0.2-0.4,0.4-0.8,0.4c-0.9,0-1.4,0.1-1.4,0.3c0,0.1-0.1,0.4-0.1,0.9l-0.1,0.8
		l0.4-0.1c0.6-0.1,1-0.1,1.2-0.1s0.3,0.1,0.3,0.2c0.2,0.3,0.1,0.6-0.1,0.8c-0.1,0.1-0.6,0.3-1.3,0.4S12.5,9.9,12.4,9.8z"/>
	<path class="st0" d="M20.1,9.3c-0.1-0.1-0.2-0.3-0.2-0.5s0-0.3,0.2-0.4c0.1-0.1,0.3-0.2,0.5-0.3C20.7,8,20.8,8,20.9,7.9
		c0-0.1,0.1-0.2,0.1-0.4c0-0.4,0-0.6-0.1-0.9c-0.1-0.2-0.2-0.4-0.4-0.6c-0.3-0.2-0.5-0.4-0.6-0.6c-0.1-0.2-0.2-0.5-0.2-1
		c0-0.5,0-0.9,0.1-1.1c0.1-0.3,0.3-0.5,0.6-0.8c0.5-0.4,0.9-0.5,1.2-0.2c0.2,0.2,0.2,0.4,0.1,0.6s-0.3,0.4-0.6,0.7
		C21,3.8,20.9,4,20.9,4.4c0,0.2,0,0.4,0,0.4C21,4.9,21,5,21.1,5c0.2,0.1,0.4,0.3,0.5,0.5C21.8,5.7,22,5.9,22,6
		c0.2,0.5,0.3,0.9,0.3,1.2c0,0.3,0,0.6,0,0.7c0,0.2-0.1,0.3-0.1,0.4c0,0.1-0.1,0.2-0.2,0.3c-0.1,0.2-0.4,0.3-0.7,0.6
		s-0.6,0.3-0.8,0.3C20.3,9.5,20.2,9.5,20.1,9.3z"/>
	<path class="st0" d="M26.4,9.9c-0.2-0.1-0.4-0.4-0.6-0.8l-0.3-0.6l-0.3,0.3c-0.3,0.4-0.5,0.6-0.7,0.7s-0.2,0.2-0.4,0.2
		c-0.2,0-0.3,0-0.5-0.1c-0.1-0.1-0.3-0.2-0.3-0.4c-0.1-0.2-0.2-0.7-0.3-1.6C23,6.9,23,6.1,23,5.3c0-0.6,0-1,0-1.2s0.1-0.3,0.2-0.4
		c0.1-0.1,0.3-0.2,0.5-0.2c0.2,0,0.3,0.1,0.4,0.2c0.1,0.1,0.1,0.2,0.2,0.4c0,0.2,0.1,0.6,0.1,1.2c0,0.9,0.1,1.6,0.1,1.9l0.1,0.6
		l0.3-0.3c0.3-0.4,0.6-0.6,0.8-0.6c0.2,0,0.5,0.1,0.7,0.4c0.2,0.3,0.4,0.5,0.5,0.7l0.2,0.4L27,8.1c0.1-0.2,0.2-0.6,0.3-1.3
		c0.1-1.3,0.2-2.1,0.3-2.5s0.1-0.6,0.2-0.6c0.1-0.1,0.3-0.2,0.4-0.2c0.2,0,0.3,0.1,0.4,0.2c0.1,0.1,0.1,0.2,0.2,0.3s0,0.2,0,0.4
		c0,0.3-0.1,1-0.2,2c-0.1,0.9-0.2,1.5-0.2,1.8c-0.1,0.3-0.2,0.5-0.4,0.8c-0.2,0.2-0.3,0.4-0.3,0.6c-0.1,0.3-0.2,0.4-0.5,0.5
		C26.9,10.1,26.6,10.1,26.4,9.9z"/>
	<path class="st0" d="M29.8,9.8c-0.1-0.1-0.2-0.3-0.3-0.6c0-0.3,0-0.7,0-1.4c0-0.8,0.1-1.3,0-1.6c0-0.3,0-0.4,0.1-0.5
		c0.1-0.1,0.1-0.3,0.1-0.7c0-0.4-0.1-0.8-0.1-1.3c0-0.1,0-0.3,0-0.3c0-0.1,0.1-0.2,0.2-0.3C29.9,3.1,30.1,3,30.2,3
		c0.1,0,0.3,0,0.5-0.1c0.2-0.1,0.4-0.1,0.7,0c0.3,0.1,0.5,0.1,0.9,0.1c0.3,0,0.5,0,0.7,0.1s0.2,0.3,0.2,0.5c0,0.3-0.1,0.5-0.2,0.5
		c-0.1,0.1-0.5,0.1-1.1,0.1c-0.6,0-0.9,0-0.9,0.1c0,0,0,0.1,0,0.1c0,0.1,0,0.4,0,0.6v0.4l0.9-0.1c0.4,0,0.7,0,0.8,0
		c0.1,0,0.2,0.1,0.3,0.2c0.2,0.2,0.3,0.5,0.1,0.7c-0.1,0.2-0.4,0.4-0.8,0.4c-0.9,0-1.4,0.1-1.4,0.3c0,0.1-0.1,0.4-0.1,0.9l-0.1,0.8
		l0.4-0.1c0.6-0.1,1-0.1,1.2-0.1s0.3,0.1,0.3,0.2c0.2,0.3,0.1,0.6-0.1,0.8c-0.1,0.1-0.6,0.3-1.3,0.4S30,9.9,29.8,9.8z"/>
	<path class="st0" d="M34.5,9.4c-0.1,0-0.2-0.1-0.4-0.2C34.1,9.1,34,9,34,8.8s0-0.6,0-1.2c0-1,0-1.9-0.1-2.9c0-0.8,0-1.3,0-1.5
		c0-0.2,0.1-0.4,0.4-0.4c0.1-0.1,0.3-0.1,0.6-0.1c0.3,0,0.6,0,0.9,0.1c0.4,0,0.7,0.3,1.1,0.7c0.4,0.4,0.6,0.9,0.8,1.5
		c0.2,0.6,0.2,1.2,0.1,2c-0.1,0.8-0.4,1.3-0.8,1.8c-0.3,0.3-0.7,0.6-1.1,0.7S34.9,9.5,34.5,9.4z M35.7,8c0.3-0.1,0.5-0.4,0.7-0.8
		c0.2-0.4,0.2-0.8,0.2-1.3c0-0.3-0.1-0.7-0.3-1.1S36,4.2,35.7,4.1c-0.3-0.2-0.5-0.2-0.6-0.1c0,0,0,0.1,0,0.1c0,0.1,0.1,0.8,0.1,2.1
		c0,1.3,0.1,2,0.1,2C35.4,8.1,35.5,8.1,35.7,8z"/>
	<path class="st0" d="M38.6,2.5c-0.1-0.1-0.2-0.2-0.2-0.4s0-0.3,0.1-0.4c0.1-0.1,0.3-0.2,0.7-0.2c0.4-0.1,0.7-0.1,1-0.2
		c0.2,0,0.3,0.1,0.4,0.2s0.2,0.3,0.2,0.5c0,0.2-0.1,0.3-0.2,0.4c-0.1,0.1-0.3,0.1-0.7,0.2c-0.3,0.1-0.6,0.1-0.8,0.1
		C38.9,2.7,38.7,2.7,38.6,2.5z M39,9.3c-0.3-0.2-0.4-1-0.4-2.2c0.1-1.5,0.1-2.4,0.2-2.7c0-0.3,0.1-0.5,0.2-0.6
		c0.1-0.1,0.3-0.2,0.4-0.2c0.2,0,0.3,0.1,0.5,0.2c0,0,0,0,0,0C39.9,4,40,4.2,40,4.4s0,1-0.1,2.3c0,0.2,0,0.4,0,0.5
		c0,0.6,0,1.1,0.1,1.2c0.2,0.4,0.2,0.7,0,0.9c-0.1,0.1-0.3,0.2-0.4,0.2C39.3,9.5,39.1,9.5,39,9.3z"/>
	<path class="st0" d="M41.3,9.3c-0.1-0.1-0.2-0.3-0.2-0.5c0-0.2,0-0.3,0.2-0.4c0.1-0.1,0.3-0.2,0.5-0.3C42,8,42.1,8,42.1,7.9
		c0-0.1,0.1-0.2,0.1-0.4c0-0.4,0-0.6-0.1-0.9c-0.1-0.2-0.2-0.4-0.4-0.6c-0.3-0.2-0.5-0.4-0.6-0.6c-0.1-0.2-0.2-0.5-0.2-1
		c0-0.5,0-0.9,0.1-1.1c0.1-0.3,0.3-0.5,0.6-0.8c0.5-0.4,0.9-0.5,1.2-0.2C43,2.7,43,2.9,43,3.1c-0.1,0.2-0.3,0.4-0.6,0.7
		c-0.1,0.1-0.2,0.3-0.2,0.6c0,0.2,0,0.4,0,0.4c0,0.1,0.1,0.2,0.2,0.2c0.2,0.1,0.4,0.3,0.5,0.5c0.2,0.2,0.3,0.4,0.4,0.5
		c0.2,0.5,0.3,0.9,0.3,1.2c0,0.3,0,0.6,0,0.7c0,0.2-0.1,0.3-0.1,0.4c0,0.1-0.1,0.2-0.2,0.3c-0.1,0.2-0.4,0.3-0.7,0.6
		c-0.4,0.2-0.6,0.3-0.8,0.3C41.6,9.5,41.4,9.5,41.3,9.3z"/>
	<path class="st0" d="M44.3,10.7c-0.1-0.1-0.2-0.2-0.2-0.3c0-0.1,0-0.5,0-1.1c0-0.8,0.1-1.4,0.1-1.8c0-0.2,0-0.4,0-0.5
		c0-0.1,0-0.1-0.1-0.1c-0.1,0-0.2-0.1-0.3-0.2c-0.1-0.2-0.2-0.3-0.2-0.5c0-0.2,0.1-0.4,0.3-0.5l0.3-0.2V3.9c0-1,0-1.5,0.1-1.7
		c0.1-0.2,0.2-0.3,0.5-0.3c0.3,0,0.5,0.1,0.5,0.3C45.5,2.4,45.5,3,45.5,4v1.7l0.5,0c0.4,0,0.7-0.1,1.1-0.1h0.5V4.2
		c0-0.4,0-0.6,0-0.8c0-0.2,0-0.3,0-0.5c0-0.1,0.1-0.2,0.1-0.3c0.1,0,0.1-0.1,0.2-0.1s0.2,0,0.3,0c0.2,0,0.4,0,0.4,0.1
		c0.1,0.2,0.1,1,0.2,2.5c0,0.2,0,0.6,0,1.2c0,1.6,0,2.6,0,3c0,0.4-0.1,0.6-0.1,0.7c-0.1,0.1-0.3,0.2-0.4,0.2s-0.3-0.1-0.4-0.2
		c-0.1-0.1-0.2-0.2-0.2-0.4c0-0.2,0-0.6-0.1-1.2l0-1.4H47c-0.4,0-0.8,0-1.1,0.1l-0.5,0l-0.1,0.7c0,0.5-0.1,1.1-0.1,1.8
		c0,0.5,0,0.8-0.1,0.9c0,0.1-0.1,0.2-0.2,0.3c-0.1,0.1-0.3,0.1-0.4,0.1C44.5,10.9,44.4,10.8,44.3,10.7z"/>
	<path class="st0" d="M53,9.4c-0.1-0.1-0.1-0.2-0.1-0.3s0-0.4,0.1-0.8C53,7.6,53,7,53,6.6s0-0.8,0.1-1c0.1-0.2,0.2-0.7,0.2-1.4
		c0-0.8,0.1-1.2,0.2-1.3c0.1-0.1,0.2-0.1,0.5-0.2c0.2,0,0.8-0.1,1.7-0.1c1.2,0,1.9,0,2.1,0c0.2,0,0.3,0.2,0.3,0.5
		c0,0.3-0.1,0.5-0.3,0.5c-0.2,0.1-0.7,0.1-1.6,0.1c-1.1,0-1.6,0.1-1.6,0.1c0,0-0.1,0.3-0.1,0.7l-0.1,0.7l0.7,0c0.3,0,0.5,0,0.6,0
		c0.1,0,0.2,0.1,0.3,0.2c0.1,0.1,0.2,0.3,0.2,0.5S56.1,6.2,56,6.3c-0.1,0.1-0.4,0.2-0.8,0.2c-0.4,0-0.7,0-0.8,0.1
		c-0.1,0.1-0.1,0.3-0.1,0.6c0,0.5,0,0.9-0.1,1.4C54.1,9.1,54,9.4,54,9.5c-0.1,0.1-0.3,0.2-0.5,0.2C53.2,9.6,53.1,9.5,53,9.4z"/>
	<path class="st0" d="M58.8,2.5c-0.1-0.1-0.2-0.2-0.2-0.4s0-0.3,0.1-0.4c0.1-0.1,0.3-0.2,0.7-0.2c0.4-0.1,0.7-0.1,1-0.2
		c0.2,0,0.3,0.1,0.4,0.2S61,1.8,60.9,2c0,0.2-0.1,0.3-0.2,0.4c-0.1,0.1-0.3,0.1-0.7,0.2c-0.3,0.1-0.6,0.1-0.8,0.1
		C59.1,2.7,58.9,2.7,58.8,2.5z M59.2,9.3c-0.3-0.2-0.4-1-0.4-2.2C58.9,5.6,59,4.7,59,4.5c0-0.3,0.1-0.5,0.2-0.6
		c0.1-0.1,0.3-0.2,0.4-0.2c0.2,0,0.3,0.1,0.5,0.2c0,0,0,0,0,0c0.1,0.1,0.1,0.2,0.1,0.5s0,1-0.1,2.3c0,0.2,0,0.4,0,0.5
		c0,0.6,0,1.1,0.1,1.2c0.2,0.4,0.2,0.7,0,0.9c-0.1,0.1-0.3,0.2-0.4,0.2C59.5,9.5,59.4,9.5,59.2,9.3z"/>
	<path class="st0" d="M61.5,9.6l-0.2-0.2l-0.1-2.7c0-1.4,0-2.3,0-2.7s0.1-0.7,0.2-0.8C61.6,3.1,61.8,3,61.9,3c0.2,0,0.3,0.1,0.4,0.2
		c0.1,0.1,0.1,0.2,0.1,0.3c0,0.1,0,0.4,0,0.9c0,0.7,0,1.1,0,1.1c0,0,0.3-0.2,0.6-0.6s0.8-0.8,1.2-1.3c0.5-0.5,0.8-0.6,1.1-0.3
		c0.2,0.2,0.2,0.4,0.1,0.6c-0.1,0.2-0.4,0.6-0.9,1.1c-0.6,0.7-1,1-1,1.1c-0.1,0-0.1,0.1-0.1,0.1c0,0,0.2,0.3,0.7,0.6
		c1.4,1.2,2.1,1.8,2.1,2.1c0,0.1-0.1,0.3-0.2,0.4c-0.2,0.1-0.3,0.2-0.4,0.2c-0.3,0-0.8-0.4-1.7-1.2c-0.5-0.4-0.9-0.8-1.1-1l-0.4-0.3
		v1.1c0,0.5,0,0.9,0,1c0,0.1-0.1,0.2-0.2,0.3c-0.1,0.1-0.3,0.2-0.4,0.2S61.7,9.8,61.5,9.6z"/>
	<path class="st0" d="M70.5,9.5c-0.2-0.1-0.3-0.4-0.3-0.8C70.1,8.3,70,8,69.9,7.9c-0.1-0.1-0.2-0.1-0.5-0.1h-0.4l-0.2,0.6
		c-0.2,0.5-0.4,0.8-0.6,1c-0.2,0.1-0.5,0.1-0.7-0.1c-0.1-0.1-0.2-0.2-0.2-0.3c0-0.1,0-0.3,0.2-0.5c0.1-0.2,0.1-0.3,0.2-0.4
		s0.1-0.2,0.1-0.2c0-0.1,0-0.1,0-0.1c0,0-0.1,0-0.1,0c-0.2,0-0.4,0-0.7-0.1c-0.3-0.1-0.5-0.2-0.5-0.2c-0.1-0.1-0.2-0.3-0.2-0.4
		c0-0.2,0.1-0.3,0.2-0.4c0.1-0.1,0.2-0.2,0.3-0.2c0.1,0,0.4,0,1,0.1c0.2,0,0.3,0.1,0.4,0c0.1,0,0.1-0.1,0.1-0.2
		C68.3,6,68.4,5.6,68.5,5c0.1-0.6,0.2-1,0.2-1.4c0-0.4,0.1-0.7,0.2-0.9c0.1-0.1,0.3-0.2,0.6-0.3c0.3,0,0.5,0,0.6,0.1
		c0.1,0.1,0.2,0.4,0.2,0.9c0,0.5,0.1,1,0.2,1.5c0.1,0.5,0.2,1,0.3,1.5c0.1,0.5,0.2,1,0.3,1.5c0.1,0.5,0.2,0.8,0.2,1
		c0,0.2-0.1,0.3-0.2,0.4c-0.1,0.1-0.3,0.2-0.4,0.2S70.6,9.6,70.5,9.5z M69.7,6.5c0-0.1,0-0.2-0.1-0.3c0,0,0,0,0,0
		c0,0.1,0,0.2-0.1,0.3c0,0.1,0,0.1,0.1,0.1C69.6,6.6,69.7,6.5,69.7,6.5z"/>
</g>
</svg>
